# xmcd CD database file
#
# Track frame offsets:
#	150
#	8732
#	20242
#	29457
#	40087
#	47966
#	60445
#	70607
#	81300
#	92634
#
# Disc length: 1371 seconds
#
# Revision: 0
# Processed by: cddbd v1.5.1PL0 Copyright (c) Steve Scherf et al.
# Submitted via: CDex 1.51
#
DISCID=7a05590a
DTITLE=Chris Scruggs - Honky tonkin' lifestyle
DYEAR=2004
DGENRE=Country
TTITLE0=Two door Ford
TTITLE1=Hold my baby
TTITLE2=Sober up and think
TTITLE3=Ain't got time
TTITLE4=Country star
TTITLE5=Alibi
TTITLE6=He will never fill my shoes
TTITLE7=Talk of the town
TTITLE8=Honky tonkin' lifestyle
TTITLE9=Really ain't got a care
EXTD=YEAR: 2004
EXTT0=
EXTT1=
EXTT2=
EXTT3=
EXTT4=
EXTT5=
EXTT6=
EXTT7=
EXTT8=
EXTT9=
PLAYORDER=
